#tb 0: 1/100
0,          0,          0,        1,      552, 0x271a2dd3
0,         10,         10,        1,      297, 0x90168a95, S=1,     1024, 0xf351799f
0,         20,         20,        1,      437, 0xc31bce1a, S=1,     1024, 0xf351799f
0,         30,         30,        1,      450, 0x7c2dcfad, S=1,     1024, 0xf351799f
0,         40,         40,        1,      547, 0xc131fd3b, S=1,     1024, 0xf351799f
0,         50,         50,        1,      613, 0x47b82005, S=1,     1024, 0xf351799f
0,         60,         60,        1,      642, 0x78bb1f5f, S=1,     1024, 0xf351799f
0,         70,         70,        1,      660, 0x35c033a2, S=1,     1024, 0xf351799f
0,         80,         80,        1,      821, 0xaf30790b, S=1,     1024, 0xf351799f
0,         90,         90,        1,     1157, 0x741c2da1, S=1,     1024, 0xf351799f
0,        100,        100,        1,      179, 0x3a27517c, S=1,     1024, 0xf351799f
0,        110,        110,        1,     1333, 0x5ee76f3c, S=1,     1024, 0xf351799f
0,        120,        120,        1,     1638, 0x5f640e86, S=1,     1024, 0xf351799f
0,        130,        130,        1,     1531, 0xccb8e437, S=1,     1024, 0xf351799f
0,        140,        140,        1,     1720, 0xc95d45ec, S=1,     1024, 0xf351799f
0,        150,        150,        1,     1910, 0x56cc831e, S=1,     1024, 0xf351799f
0,        160,        160,        1,     2124, 0x9cc8e130, S=1,     1024, 0xf351799f
0,        170,        170,        1,     2247, 0xdf2725b0, S=1,     1024, 0xf351799f
0,        180,        180,        1,     2311, 0xdc633703, S=1,     1024, 0xf351799f
0,        190,        190,        1,     2408, 0x91c26f3e, S=1,     1024, 0xf351799f
0,        200,        200,        1,     2601, 0x8cf3c157, S=1,     1024, 0xf351799f
0,        210,        210,        1,     2686, 0x8e0b00e5, S=1,     1024, 0xf351799f
0,        220,        220,        1,     2784, 0xaa880e55, S=1,     1024, 0xf351799f
0,        230,        230,        1,     2884, 0x46f546f6, S=1,     1024, 0xf351799f
0,        240,        240,        1,     2981, 0x050d7ad4, S=1,     1024, 0xf351799f
0,        250,        250,        1,     3101, 0xbcc89bec, S=1,     1024, 0xf351799f
0,        260,        260,        1,     3252, 0xdb80f3f9, S=1,     1024, 0xf351799f
0,        270,        270,        1,     3329, 0xe4d42430, S=1,     1024, 0xf351799f
0,        280,        280,        1,     3571, 0x6c7d8a9f, S=1,     1024, 0xf351799f
0,        290,        290,        1,     3806, 0x4255f9f2, S=1,     1024, 0xf351799f
0,        300,        300,        1,     2749, 0x64681c32, S=1,     1024, 0xf351799f
0,        310,        310,        1,     4031, 0x3b077006, S=1,     1024, 0xf351799f
0,        320,        320,        1,     3025, 0x86729c1c, S=1,     1024, 0xf351799f
0,        330,        330,        1,     4294, 0xeb280b37, S=1,     1024, 0xf351799f
0,        340,        340,        1,     2044, 0x5adcb93b, S=1,     1024, 0xf351799f
0,        350,        350,        1,     3212, 0xcf79eeed, S=1,     1024, 0xf351799f
0,        360,        360,        1,     2280, 0x1a394d2f, S=1,     1024, 0xf351799f
0,        370,        370,        1,     3632, 0x66ad992e, S=1,     1024, 0xf351799f
0,        380,        380,        1,     3552, 0x23697490, S=1,     1024, 0xf351799f
0,        390,        390,        1,     3689, 0x868adbb7, S=1,     1024, 0xf351799f
0,        400,        400,        1,     1558, 0x7a13e53b, S=1,     1024, 0xf351799f
0,        410,        410,        1,      939, 0xe565cba1, S=1,     1024, 0xf351799f
0,        420,        420,        1,      273, 0x3687799b, S=1,     1024, 0xf351799f
0,        430,        430,        1,      929, 0x788ab0c3, S=1,     1024, 0xf351799f
0,        440,        440,        1,      271, 0xe7af807c, S=1,     1024, 0xf351799f
0,        450,        450,        1,      196, 0xf5ab51ee, S=1,     1024, 0xf351799f
0,        460,        460,        1,     4299, 0x67ec0d55, S=1,     1024, 0xf351799f
0,        470,        470,        1,     4894, 0x7315406b, S=1,     1024, 0xf351799f
0,        480,        480,        1,     4927, 0x092e19d6, S=1,     1024, 0xf351799f
0,        490,        490,        1,     4941, 0x58a357da, S=1,     1024, 0xf351799f
0,        500,        500,        1,     4153, 0x7582ac32, S=1,     1024, 0xf351799f
0,        510,        510,        1,     4677, 0xeaa3c04f, S=1,     1024, 0xf351799f
0,        520,        520,        1,     4740, 0x636bb580, S=1,     1024, 0xf351799f
0,        530,        530,        1,     4981, 0x31d556d4, S=1,     1024, 0xf351799f
0,        540,        540,        1,     5179, 0x860fc6a1, S=1,     1024, 0xf351799f
0,        550,        550,        1,     5046, 0xce9183d3, S=1,     1024, 0xf351799f
0,        560,        560,        1,     5140, 0xa6d7b9af, S=1,     1024, 0xf351799f
0,        570,        570,        1,     4288, 0xbc3af716, S=1,     1024, 0xf351799f
0,        580,        580,        1,     5079, 0xa8d59e01, S=1,     1024, 0xf351799f
0,        590,        590,        1,     5284, 0xea34e3b3, S=1,     1024, 0xf351799f
0,        600,        600,        1,     5426, 0x556a15cd, S=1,     1024, 0xf351799f
0,        610,        610,        1,     4644, 0x7cc08935, S=1,     1024, 0xf351799f
0,        620,        620,        1,     5263, 0x7536cf7d, S=1,     1024, 0xf351799f
0,        630,        630,        1,     5221, 0x9fbac3ca, S=1,     1024, 0xf351799f
0,        640,        640,        1,     5216, 0x65f09bd1, S=1,     1024, 0xf351799f
0,        650,        650,        1,     5394, 0x1293ff65, S=1,     1024, 0xf351799f
0,        660,        660,        1,     5219, 0x9aa2dcc4, S=1,     1024, 0xf351799f
0,        670,        670,        1,     5704, 0xba42dd96, S=1,     1024, 0xf351799f
0,        680,        680,        1,     5636, 0xcb91a25b, S=1,     1024, 0xf351799f
0,        690,        690,        1,     5818, 0x8dc0df92, S=1,     1024, 0xf351799f
0,        700,        700,        1,     5763, 0x51d5d5f0, S=1,     1024, 0xf351799f
0,        710,        710,        1,     6116, 0x09558b48, S=1,     1024, 0xf351799f
0,        720,        720,        1,     6069, 0x41926817, S=1,     1024, 0xf351799f
0,        730,        730,        1,     5796, 0x7fbeda44, S=1,     1024, 0xf351799f
0,        740,        740,        1,     5999, 0xe07d3770, S=1,     1024, 0xf351799f
0,        750,        750,        1,     6220, 0x6607b06f, S=1,     1024, 0xf351799f
0,        760,        760,        1,     6374, 0x7628e533, S=1,     1024, 0xf351799f
0,        770,        770,        1,     6465, 0xfe956b15, S=1,     1024, 0xf351799f
0,        780,        780,        1,     7019, 0x6c9a1aef, S=1,     1024, 0xf351799f
0,        790,        790,        1,     7255, 0x5fa5c1bf, S=1,     1024, 0xf351799f
0,        800,        800,        1,     8197, 0xf11d6ef2, S=1,     1024, 0xf351799f
0,        810,        810,        1,     8358, 0x027279e8, S=1,     1024, 0xf351799f
0,        820,        820,        1,     7708, 0x607f8e8b, S=1,     1024, 0xf351799f
0,        830,        830,        1,     7412, 0x6bb2105f, S=1,     1024, 0xf351799f
0,        840,        840,        1,     7540, 0xdc032153, S=1,     1024, 0xf351799f
0,        850,        850,        1,     7948, 0x916ecd8b, S=1,     1024, 0xf351799f
0,        860,        860,        1,     8408, 0x1f97d414, S=1,     1024, 0xf351799f
0,        870,        870,        1,     8056, 0x9cbf159c, S=1,     1024, 0xf351799f
0,        880,        880,        1,     7401, 0x2625addb, S=1,     1024, 0xf351799f
0,        890,        890,        1,     7494, 0x2877eacb, S=1,     1024, 0xf351799f
0,        900,        900,        1,     7806, 0xe32574a3, S=1,     1024, 0xf351799f
0,        910,        910,        1,     7768, 0x25ed7ee7, S=1,     1024, 0xf351799f
0,        920,        920,        1,     7749, 0x6d8e978e, S=1,     1024, 0xf351799f
0,        930,        930,        1,     8047, 0xec4b150c, S=1,     1024, 0xf351799f
0,        940,        940,        1,     7617, 0x574430d4, S=1,     1024, 0xf351799f
0,        950,        950,        1,     7979, 0x0eb1cf2a, S=1,     1024, 0xf351799f
0,        960,        960,        1,    12062, 0xb49d9125, S=1,     1024, 0xf351799f
0,        970,        970,        1,    12317, 0x2d8fd6e9, S=1,     1024, 0xf351799f
0,        980,        980,        1,    12217, 0x9b3be549, S=1,     1024, 0xf351799f
0,        990,        990,        1,    11226, 0x74889117, S=1,     1024, 0xf351799f
0,       1000,       1000,        1,    11108, 0x5e5b0afd, S=1,     1024, 0xf351799f
0,       1010,       1010,        1,    11366, 0xb38e8d15, S=1,     1024, 0xf351799f
0,       1020,       1020,        1,    11896, 0xeb3e35ca, S=1,     1024, 0xf351799f
0,       1030,       1030,        1,    11479, 0xbf7581e9, S=1,     1024, 0xf351799f
0,       1040,       1040,        1,    13395, 0x415b38d8, S=1,     1024, 0xf351799f
0,       1050,       1050,        1,    12913, 0x61544631, S=1,     1024, 0xf351799f
0,       1060,       1060,        1,    13864, 0xd39fe768, S=1,     1024, 0xf351799f
0,       1070,       1070,        1,    13551, 0x76c167d1, S=1,     1024, 0xf351799f
0,       1080,       1080,        1,    14041, 0x2f206888, S=1,     1024, 0xf351799f
0,       1090,       1090,        1,    14144, 0x9ec030d3, S=1,     1024, 0xf351799f
0,       1100,       1100,        1,    14277, 0xa84b3a9b, S=1,     1024, 0xf351799f
0,       1110,       1110,        1,    14424, 0xf5f1e06e, S=1,     1024, 0xf351799f
0,       1120,       1120,        1,    14689, 0xbca0adb5, S=1,     1024, 0xf351799f
0,       1130,       1130,        1,    14598, 0xc1d45745, S=1,     1024, 0xf351799f
0,       1140,       1140,        1,    15213, 0x8f3080fc, S=1,     1024, 0xf351799f
0,       1150,       1150,        1,    15425, 0xb0aa8f59, S=1,     1024, 0xf351799f
0,       1160,       1160,        1,    15595, 0x1406e5d5, S=1,     1024, 0xf351799f
0,       1170,       1170,        1,    15598, 0x48ec7d08, S=1,     1024, 0xf351799f
0,       1180,       1180,        1,    15863, 0x5381db7b, S=1,     1024, 0xf351799f
0,       1190,       1190,        1,    15717, 0xb87a1b87, S=1,     1024, 0xf351799f
0,       1200,       1200,        1,    16078, 0x5bab2453, S=1,     1024, 0xf351799f
0,       1210,       1210,        1,    16225, 0xa1f88113, S=1,     1024, 0xf351799f
0,       1220,       1220,        1,    16135, 0x6af2f4e1, S=1,     1024, 0xf351799f
0,       1230,       1230,        1,    16661, 0xf02a3343, S=1,     1024, 0xf351799f
0,       1240,       1240,        1,    16619, 0xc71935a4, S=1,     1024, 0xf351799f
0,       1250,       1250,        1,    16829, 0x29849844, S=1,     1024, 0xf351799f
0,       1260,       1260,        1,    16944, 0x3423ae77, S=1,     1024, 0xf351799f
0,       1270,       1270,        1,    17119, 0x609b4409, S=1,     1024, 0xf351799f
0,       1280,       1280,        1,    17150, 0xf85dfd31, S=1,     1024, 0xf351799f
0,       1290,       1290,        1,    17321, 0x38eccb10, S=1,     1024, 0xf351799f
0,       1300,       1300,        1,    17395, 0x0ba08b85, S=1,     1024, 0xf351799f
0,       1310,       1310,        1,    17666, 0x6fbc0264, S=1,     1024, 0xf351799f
0,       1320,       1320,        1,    17730, 0x3dcc64a6, S=1,     1024, 0xf351799f
0,       1330,       1330,        1,    17934, 0xb539974b, S=1,     1024, 0xf351799f
0,       1340,       1340,        1,    17944, 0x2214ec94, S=1,     1024, 0xf351799f
0,       1350,       1350,        1,    18238, 0x70f9ff1d, S=1,     1024, 0xf351799f
0,       1360,       1360,        1,    18390, 0xb8319208, S=1,     1024, 0xf351799f
0,       1370,       1370,        1,    18543, 0x45a1c02f, S=1,     1024, 0xf351799f
0,       1380,       1380,        1,    18939, 0x2789a88c, S=1,     1024, 0xf351799f
0,       1390,       1390,        1,    19145, 0x5daafd7a, S=1,     1024, 0xf351799f
0,       1400,       1400,        1,    19120, 0x565f80e6, S=1,     1024, 0xf351799f
0,       1410,       1410,        1,    19130, 0xff70cc21, S=1,     1024, 0xf351799f
0,       1420,       1420,        1,    19494, 0xbfa284db, S=1,     1024, 0xf351799f
0,       1430,       1430,        1,    19534, 0x3d40743b, S=1,     1024, 0xf351799f
0,       1440,       1440,        1,    19747, 0x33c9b108, S=1,     1024, 0xf351799f
0,       1450,       1450,        1,    20114, 0x9d223e36, S=1,     1024, 0xf351799f
0,       1460,       1460,        1,    20257, 0xe7bdaf43, S=1,     1024, 0xf351799f
0,       1470,       1470,        1,    20370, 0x0c5f1970, S=1,     1024, 0xf351799f
0,       1480,       1480,        1,    20292, 0x6986d20e, S=1,     1024, 0xf351799f
0,       1490,       1490,        1,    20491, 0xd88e4c08, S=1,     1024, 0xf351799f
0,       1500,       1500,        1,    20647, 0x1aefaffc, S=1,     1024, 0xf351799f
0,       1510,       1510,        1,    20666, 0x43e4aaaa, S=1,     1024, 0xf351799f
0,       1520,       1520,        1,    21007, 0xa7ca3ef0, S=1,     1024, 0xf351799f
0,       1530,       1530,        1,    21058, 0x06814351, S=1,     1024, 0xf351799f
0,       1540,       1540,        1,    21153, 0x3c852b10, S=1,     1024, 0xf351799f
0,       1550,       1550,        1,    21078, 0x8df15855, S=1,     1024, 0xf351799f
0,       1560,       1560,        1,    21458, 0xd3a531d6, S=1,     1024, 0xf351799f
0,       1570,       1570,        1,    21669, 0x88baca53, S=1,     1024, 0xf351799f
0,       1580,       1580,        1,    21581, 0xd692fa1f, S=1,     1024, 0xf351799f
0,       1590,       1590,        1,    21654, 0x30fb9061, S=1,     1024, 0xf351799f
0,       1600,       1600,        1,    21987, 0xe7646d8b, S=1,     1024, 0xf351799f
0,       1610,       1610,        1,    22205, 0x0fc55b6a, S=1,     1024, 0xf351799f
0,       1620,       1620,        1,    22475, 0x4bc4c032, S=1,     1024, 0xf351799f
0,       1630,       1630,        1,    22490, 0x58ca23f6, S=1,     1024, 0xf351799f
0,       1640,       1640,        1,    22460, 0xf9ceb0ac, S=1,     1024, 0xf351799f
0,       1650,       1650,        1,    22861, 0xb05f0f84, S=1,     1024, 0xf351799f
0,       1660,       1660,        1,    22746, 0x0df23a5c, S=1,     1024, 0xf351799f
0,       1670,       1670,        1,    23164, 0x755347ac, S=1,     1024, 0xf351799f
0,       1680,       1680,        1,    23273, 0x9781a34f, S=1,     1024, 0xf351799f
0,       1690,       1690,        1,    23211, 0x69c7606b, S=1,     1024, 0xf351799f
0,       1700,       1700,        1,    23648, 0xdafde037, S=1,     1024, 0xf351799f
0,       1710,       1710,        1,    23675, 0x2a2147ed, S=1,     1024, 0xf351799f
0,       1720,       1720,        1,    23874, 0x12c184b6, S=1,     1024, 0xf351799f
